<svg xmlns="http://www.w3.org/2000/svg" version="1.1" xmlns:xlink="http://www.w3.org/1999/xlink" xmlns:svgjs="http://svgjs.com/svgjs" width="1440" height="560" preserveAspectRatio="none" viewBox="0 0 1440 560"><g mask="url(&quot;#SvgjsMask1053&quot;)" fill="none"><rect width="1440" height="560" x="0" y="0" fill="#0e2a47"></rect><path d="M0,419.105C106.424,437.498,219.972,542.05,310.816,483.639C401.667,425.223,342.988,275.107,381.119,174.051C415.462,83.033,536.14,21.194,521.601,-74.995C507.044,-171.304,371.853,-193.687,313.723,-271.843C248.351,-359.736,262.254,-509.334,163.423,-556.569C66.89,-602.706,-49.282,-540.274,-144.064,-490.638C-227.566,-446.909,-282.503,-369.171,-338.791,-293.564C-391.155,-223.227,-431.245,-148.961,-460.083,-66.15C-495.031,34.206,-569.356,143.196,-524.423,239.496C-479.439,335.905,-349.321,352.471,-248.673,386.942C-167.966,414.583,-84.063,404.576,0,419.105" fill="#091b2e"></path><path d="M1440 1053.879C1536.365 1040.484 1633.42 1040.08 1719.973 995.646 1812.659 948.0640000000001 1908.59 888.4870000000001 1949.125 792.51 1989.353 697.259 1932.595 592.368 1933.9569999999999 488.98 1935.654 360.152 2028.214 219.15300000000002 1958.103 111.06099999999998 1889.377 5.104000000000042 1733.921-0.2580000000000382 1608.284-13.121999999999957 1498.274-24.385999999999967 1390.547 0.9759999999999991 1288.034 42.45100000000002 1193.301 80.779 1104.42 134.28500000000003 1042.675 215.716 983.2149999999999 294.133 962.881 391.978 949.115 489.421 935.3779999999999 586.656 938.246 682.754 963.279 777.711 992.325 887.893 1006.5029999999999 1023.998 1105.099 1081.116 1204.017 1138.42 1326.771 1069.618 1440 1053.879" fill="#133960"></path></g><defs><mask id="SvgjsMask1053"><rect width="1440" height="560" fill="#ffffff"></rect></mask></defs></svg>